{"glyphs":{"0":{"ha":688,"x_min":0,"x_max":0,"o":""},"1":{"ha":688,"x_min":0,"x_max":0,"o":""},"2":{"ha":688,"x_min":0,"x_max":0,"o":""},"3":{"ha":688,"x_min":0,"x_max":0,"o":""},"4":{"ha":688,"x_min":0,"x_max":0,"o":""},"5":{"ha":688,"x_min":0,"x_max":0,"o":""},"6":{"ha":688,"x_min":0,"x_max":0,"o":""},"7":{"ha":688,"x_min":0,"x_max":0,"o":""},"8":{"ha":688,"x_min":0,"x_max":0,"o":""},"9":{"ha":688,"x_min":0,"x_max":0,"o":""}," ":{"ha":345,"x_min":0,"x_max":0,"o":""},"!":{"ha":456,"x_min":0,"x_max":0,"o":""},"\"":{"ha":456,"x_min":0,"x_max":0,"o":""},"#":{"ha":906,"x_min":0,"x_max":0,"o":""},"$":{"ha":688,"x_min":0,"x_max":0,"o":""},"%":{"ha":1092,"x_min":0,"x_max":0,"o":""},"&":{"ha":1141,"x_min":0,"x_max":0,"o":""},"'":{"ha":235,"x_min":0,"x_max":0,"o":""},"(":{"ha":514,"x_min":0,"x_max":0,"o":""},")":{"ha":514,"x_min":0,"x_max":0,"o":""},"*":{"ha":694,"x_min":0,"x_max":0,"o":""},"+":{"ha":688,"x_min":0,"x_max":0,"o":""},",":{"ha":378,"x_min":0,"x_max":0,"o":""},"-":{"ha":454,"x_min":0,"x_max":0,"o":""},".":{"ha":378,"x_min":0,"x_max":0,"o":""},"/":{"ha":386,"x_min":0,"x_max":0,"o":""},":":{"ha":378,"x_min":0,"x_max":0,"o":""},";":{"ha":378,"x_min":0,"x_max":0,"o":""},"<":{"ha":688,"x_min":0,"x_max":0,"o":""},"=":{"ha":688,"x_min":0,"x_max":0,"o":""},">":{"ha":688,"x_min":0,"x_max":0,"o":""},"?":{"ha":507,"x_min":0,"x_max":0,"o":""},"@":{"ha":1369,"x_min":0,"x_max":0,"o":""},"A":{"ha":1752,"x_min":0,"x_max":1671,"o":"m 800 1671 l 819 1671 q 1259 1538 1006 1671 q 1636 1099 1533 1396 q 1671 876 1671 984 l 1671 857 q 1557 453 1671 671 q 1240 98 1462 229 q 871 0 1067 0 l 857 0 q 491 95 684 0 q 222 269 339 156 q 0 792 0 500 l 0 808 q 100 1191 0 992 q 269 1449 155 1329 q 800 1671 499 1671 m 901 1489 l 901 868 q 1378 453 1356 470 q 1470 624 1453 541 q 1492 803 1492 724 q 1270 1332 1492 1103 q 1050 1468 1120 1468 q 909 1489 972 1489 l 901 1489 m 179 865 q 298 464 179 656 l 301 464 l 765 868 l 765 1484 q 439 1356 600 1463 q 228 1123 292 1242 q 193 1009 209 1089 q 179 865 179 925 m 388 350 q 594 209 538 216 q 762 182 696 182 l 765 182 l 765 678 q 388 350 577 520 m 901 678 l 901 187 q 1158 269 985 187 q 1278 353 1233 313 q 901 678 904 677 z "},"B":{"ha":1709,"x_min":0,"x_max":1628,"o":"m 795 1628 l 844 1628 q 1348 1432 1109 1628 q 1500 1256 1466 1320 q 1628 849 1628 1053 l 1628 779 q 1451 301 1628 537 q 1275 138 1339 179 q 849 0 1058 0 l 779 0 q 334 152 556 0 q 0 798 0 416 l 0 833 q 347 1487 0 1219 q 795 1628 560 1628 m 138 825 l 138 803 q 285 393 138 589 l 288 393 q 1234 1343 462 569 q 825 1489 1038 1489 l 803 1489 q 339 1297 553 1489 q 138 825 138 1080 m 385 293 q 605 174 496 203 q 746 141 621 160 q 814 136 798 136 q 1161 233 980 136 q 1451 589 1359 352 q 1492 814 1492 721 q 1397 1156 1492 979 q 1335 1242 1364 1207 q 385 293 860 772 z "},"C":{"ha":1451,"x_min":0,"x_max":1370,"o":"m 662 1628 l 713 1628 q 955 1527 836 1628 q 1088 1245 1088 1397 l 1088 1199 q 914 887 1088 1027 l 892 876 q 971 838 892 873 q 1313 415 1207 696 q 1370 65 1370 250 q 1308 5 1350 5 q 1185 0 1308 0 l 898 0 q 49 5 443 0 q 0 62 0 26 l 0 103 q 168 632 0 386 q 345 806 265 750 q 475 873 408 846 l 475 876 q 345 998 425 895 q 279 1210 279 1098 l 279 1226 q 526 1600 279 1478 q 662 1628 594 1628 z "},"D":{"ha":1573,"x_min":0,"x_max":1492,"o":"m 732 1492 l 760 1492 q 876 1389 783 1492 q 1462 803 1122 1146 q 1492 746 1492 777 q 1446 689 1492 701 l 1261 689 l 1261 43 q 1218 0 1246 0 l 906 0 q 901 8 901 0 l 860 8 l 860 401 l 632 401 l 632 8 l 591 8 q 586 0 591 0 l 274 0 q 231 43 245 0 l 231 689 l 46 689 q 0 735 0 703 l 0 757 q 84 857 0 781 q 716 1487 709 1487 q 732 1492 725 1492 z "},"E":{"ha":1207,"x_min":0,"x_max":1126,"o":"m 1055 1628 q 1126 1573 1108 1628 l 1126 1557 q 1069 1492 1126 1510 l 1006 1492 l 1006 1191 q 939 1104 1006 1140 q 757 814 757 960 q 922 537 757 676 q 1006 448 1006 483 l 1006 136 l 1055 136 q 1126 81 1108 136 l 1126 65 q 1069 0 1126 18 l 71 0 q 0 54 18 0 l 0 71 q 57 136 0 118 l 122 136 l 122 437 q 203 534 122 488 q 358 743 330 638 q 372 814 365 752 q 250 1055 372 926 q 190 1104 243 1058 q 122 1191 122 1139 l 122 1492 l 71 1492 q 0 1546 18 1492 l 0 1563 q 57 1628 0 1610 l 1055 1628 m 260 1492 l 260 1229 q 510 811 510 1040 q 260 399 510 589 l 260 136 l 868 136 l 868 399 q 618 817 618 587 q 868 1229 618 1039 l 868 1492 l 260 1492 z "},"F":{"ha":1362,"x_min":0,"x_max":1280,"o":"m 998 1492 l 1028 1492 q 1251 1351 1161 1492 q 1280 1226 1280 1289 l 1280 1223 q 1107 974 1280 1054 q 1012 958 1059 958 q 827 1034 905 958 q 524 833 533 837 l 524 830 q 534 751 534 785 l 534 741 q 524 665 534 705 q 830 467 588 625 l 833 467 q 1017 534 913 534 q 1256 380 1171 534 q 1280 269 1280 325 l 1280 266 q 1145 33 1280 119 q 1028 0 1084 0 l 998 0 q 765 160 852 0 q 746 260 746 218 l 746 277 q 757 347 746 308 l 448 545 q 266 477 364 477 q 41 602 130 477 q 0 749 0 669 q 152 987 0 905 q 266 1015 210 1015 q 442 949 364 1015 l 448 949 q 754 1153 747 1152 q 746 1215 746 1191 l 746 1232 q 914 1476 746 1394 q 998 1492 961 1492 z "},"G":{"ha":1709,"x_min":0,"x_max":1628,"o":"m 60 1628 l 1568 1628 q 1628 1568 1628 1615 l 1628 54 q 1576 0 1628 20 l 54 0 q 0 52 20 0 l 0 1568 q 60 1628 12 1628 m 138 1489 l 138 136 l 1492 136 l 1492 1489 l 138 1489 m 1421 1289 l 1424 1289 l 1424 203 l 203 203 q 524 382 290 257 q 746 486 671 462 q 882 884 789 631 l 1421 1289 z "},"H":{"ha":1714,"x_min":0,"x_max":1633,"o":"m 808 1628 l 827 1628 q 887 1576 869 1628 q 944 1405 887 1508 q 1053 1516 992 1438 q 1112 1563 1075 1563 l 1131 1563 q 1191 1503 1191 1550 l 1191 1481 q 1172 1343 1172 1387 l 1169 1343 q 1177 1299 1173 1318 q 1318 1356 1206 1299 q 1364 1378 1344 1378 l 1383 1378 q 1443 1318 1443 1365 l 1443 1291 q 1408 1232 1443 1278 q 1348 1109 1349 1145 l 1351 1109 q 1430 1099 1381 1101 l 1535 1107 l 1541 1107 q 1600 1047 1600 1094 l 1600 1023 q 1544 963 1600 989 q 1432 876 1478 924 l 1427 868 q 1603 787 1467 830 q 1633 735 1633 762 l 1633 711 q 1581 656 1633 677 q 1400 616 1488 653 l 1400 613 q 1530 467 1417 570 q 1538 437 1538 446 l 1538 412 q 1487 358 1538 378 l 1457 358 q 1310 393 1343 393 q 1283 396 1310 396 l 1275 396 q 1270 391 1270 395 q 1326 214 1272 338 q 1329 195 1326 199 q 1297 136 1318 136 q 1272 125 1284 125 l 1245 125 q 1150 195 1225 125 q 1066 244 1095 235 q 1042 92 1042 184 l 1042 54 q 990 0 1042 20 l 958 0 q 890 84 916 0 q 817 190 850 157 q 724 35 753 122 q 675 0 700 0 l 646 0 q 591 52 612 0 l 591 87 q 567 244 591 183 q 418 138 525 235 q 391 127 399 127 l 361 127 q 307 179 327 127 l 307 206 q 345 309 307 214 q 363 393 358 349 l 358 396 l 345 396 q 179 358 292 396 l 149 358 q 95 410 115 358 l 95 437 q 163 521 95 471 q 233 616 233 602 q 43 659 134 655 q 0 711 0 681 l 0 735 q 98 808 0 789 q 206 871 184 844 q 73 971 140 939 q 33 1023 33 994 l 33 1047 q 92 1107 44 1107 l 98 1107 l 203 1099 q 285 1109 229 1099 q 193 1278 279 1162 l 190 1291 l 190 1318 q 250 1378 201 1378 l 269 1378 q 361 1332 284 1378 q 456 1299 399 1314 q 461 1335 461 1312 l 461 1343 q 442 1481 461 1385 l 442 1503 q 502 1563 454 1563 l 521 1563 q 597 1495 559 1563 q 689 1405 671 1411 q 743 1546 721 1453 q 795 1625 743 1608 q 808 1628 800 1628 m 814 1335 q 762 1278 814 1318 q 719 1261 734 1261 l 675 1261 q 602 1289 644 1261 l 600 1289 q 548 1183 600 1238 q 464 1158 515 1158 q 426 1161 447 1161 l 420 1161 q 429 1115 429 1139 l 429 1088 q 315 968 429 1005 q 353 884 353 912 l 353 841 q 293 751 353 806 l 290 751 l 345 711 q 377 651 369 688 l 377 591 q 355 537 377 580 q 496 453 461 537 q 502 418 502 429 l 502 374 q 567 388 542 388 l 589 388 q 705 285 667 388 q 798 336 759 336 l 836 336 q 928 285 873 335 q 1044 388 966 388 l 1069 388 q 1131 374 1093 388 l 1131 418 q 1232 532 1131 504 q 1278 537 1246 537 q 1256 602 1256 574 l 1256 648 q 1321 738 1256 689 q 1340 746 1337 746 l 1340 749 q 1280 844 1283 805 l 1280 879 q 1318 968 1280 916 q 1204 1085 1204 1006 l 1204 1118 q 1210 1161 1204 1131 l 1204 1161 q 1172 1158 1186 1161 q 1042 1248 1075 1158 q 1031 1289 1033 1289 q 966 1261 985 1261 l 909 1261 q 825 1324 857 1276 q 814 1335 825 1328 m 817 1199 q 930 1118 903 1199 q 933 1093 933 1103 l 933 1077 q 852 749 922 1006 q 825 735 836 735 l 808 735 q 760 830 773 735 q 700 1077 713 1000 l 700 1093 q 784 1196 700 1167 q 817 1199 812 1199 m 814 665 l 822 665 q 933 572 905 665 l 933 534 q 846 431 933 463 q 817 429 823 429 q 703 510 735 429 l 700 526 l 700 567 q 814 665 722 665 z "},"I":{"ha":1714,"x_min":0,"x_max":1633,"o":"m 808 1628 l 827 1628 q 887 1576 869 1628 q 944 1405 887 1508 q 1053 1516 992 1438 q 1112 1563 1075 1563 l 1131 1563 q 1191 1503 1191 1550 l 1191 1481 q 1172 1343 1172 1387 l 1169 1343 q 1177 1299 1173 1318 q 1318 1356 1206 1299 q 1364 1378 1344 1378 l 1383 1378 q 1443 1318 1443 1365 l 1443 1291 q 1408 1232 1443 1278 q 1348 1109 1349 1145 l 1351 1109 q 1430 1099 1381 1101 l 1535 1107 l 1541 1107 q 1600 1047 1600 1094 l 1600 1023 q 1544 963 1600 989 q 1432 876 1478 924 l 1427 868 q 1603 787 1467 830 q 1633 735 1633 762 l 1633 711 q 1581 656 1633 677 q 1400 616 1488 653 l 1400 613 q 1530 467 1417 570 q 1538 437 1538 446 l 1538 412 q 1487 358 1538 378 l 1457 358 q 1310 393 1343 393 q 1283 396 1310 396 l 1275 396 q 1270 391 1270 395 q 1326 214 1272 338 q 1329 195 1326 199 q 1297 136 1318 136 q 1272 125 1284 125 l 1245 125 q 1150 195 1225 125 q 1066 244 1095 235 q 1042 92 1042 184 l 1042 54 q 990 0 1042 20 l 958 0 q 890 84 916 0 q 817 190 850 157 q 724 35 753 122 q 675 0 700 0 l 646 0 q 591 52 612 0 l 591 87 q 567 244 591 183 q 418 138 522 233 q 391 127 399 127 l 361 127 q 307 179 327 127 l 307 206 q 345 309 307 214 q 363 393 358 349 l 358 396 l 345 396 q 179 358 292 396 l 149 358 q 95 410 115 358 l 95 437 q 163 521 95 471 q 233 616 233 602 q 43 659 134 655 q 0 711 0 681 l 0 735 q 98 808 0 789 q 206 871 184 844 q 73 971 140 939 q 33 1023 33 994 l 33 1047 q 92 1107 44 1107 l 98 1107 l 203 1099 q 285 1109 229 1099 q 193 1278 279 1162 l 190 1291 l 190 1318 q 250 1378 201 1378 l 269 1378 q 361 1332 284 1378 q 456 1299 399 1314 q 461 1335 461 1312 l 461 1343 q 442 1481 461 1385 l 442 1503 q 502 1563 454 1563 l 521 1563 q 597 1495 559 1563 q 689 1405 671 1411 q 743 1546 721 1453 q 795 1625 743 1608 q 808 1628 800 1628 m 814 1335 q 762 1278 814 1318 q 719 1261 734 1261 l 675 1261 q 602 1289 644 1261 l 600 1289 q 548 1183 600 1238 q 464 1158 515 1158 q 426 1161 447 1161 l 420 1161 q 429 1115 429 1139 l 429 1088 q 315 968 429 1005 q 353 884 353 912 l 353 841 q 293 751 353 806 l 290 751 l 345 711 q 377 651 369 688 l 377 591 q 355 537 377 580 q 496 453 461 537 q 502 418 502 429 l 502 374 q 567 388 542 388 l 589 388 q 705 285 667 388 q 798 336 759 336 l 836 336 q 928 285 873 335 q 1044 388 966 388 l 1069 388 q 1131 374 1093 388 l 1131 418 q 1232 532 1131 504 q 1278 537 1246 537 q 1256 602 1256 574 l 1256 648 q 1321 738 1256 689 q 1340 746 1337 746 l 1340 749 q 1280 844 1283 805 l 1280 879 q 1318 968 1280 916 q 1204 1085 1204 1006 l 1204 1118 q 1210 1161 1204 1131 l 1204 1161 q 1172 1158 1186 1161 q 1042 1248 1075 1158 q 1031 1289 1033 1289 q 966 1261 985 1261 l 909 1261 q 825 1324 857 1276 q 814 1335 825 1328 m 1004 1096 l 1034 1096 q 1093 1036 1093 1083 l 1093 1012 q 1055 963 1093 984 l 1004 949 q 906 811 932 880 q 787 488 852 694 q 735 450 760 450 l 700 450 q 578 635 646 450 q 551 705 551 687 l 551 732 q 610 792 562 792 l 627 792 q 689 738 669 792 q 708 700 703 701 q 811 941 753 842 q 955 1085 878 1051 q 1004 1096 987 1096 z "},"J":{"ha":1709,"x_min":0,"x_max":1628,"o":"m 920 1628 l 971 1628 q 1381 1468 1175 1628 q 1609 1112 1537 1342 q 1628 968 1628 1023 l 1628 914 q 1576 860 1628 880 l 914 860 q 860 911 880 860 l 860 1568 q 920 1628 871 1628 m 998 1484 l 998 998 l 1484 998 q 1421 1196 1484 1055 q 1326 1321 1381 1261 q 1050 1476 1209 1438 l 998 1484 m 686 1400 l 708 1400 q 768 1340 768 1387 l 768 768 l 1340 768 q 1400 708 1400 755 l 1400 692 q 1104 122 1400 349 q 735 0 916 0 l 656 0 q 258 149 462 0 q 111 309 159 236 q 0 662 0 492 l 0 741 q 144 1134 0 932 q 290 1270 262 1263 q 686 1400 469 1400 m 138 703 l 138 692 q 288 320 138 495 q 700 138 466 138 l 705 138 q 1101 309 920 138 q 1215 486 1189 411 q 1256 629 1237 528 l 684 629 q 629 681 650 629 l 629 1253 q 353 1139 497 1242 q 138 703 138 951 z "},"K":{"ha":2165,"x_min":0,"x_max":2083,"o":"m 1061 1644 q 1568 1326 1438 1644 q 1614 1077 1614 1202 l 1614 963 q 1758 996 1703 996 l 1788 996 q 2024 830 1930 996 q 2083 537 2083 694 l 2083 505 q 1845 76 2083 222 q 1557 0 1701 0 l 372 0 q 163 87 275 0 q 0 518 0 229 l 0 534 q 214 884 0 789 q 412 917 296 917 q 448 914 414 917 q 412 1131 412 1029 l 412 1156 q 496 1424 412 1307 q 1061 1644 668 1644 m 564 1142 q 643 830 564 1018 l 643 814 q 572 743 627 743 l 556 743 q 401 765 486 760 q 225 716 306 765 q 152 518 152 651 q 282 190 152 286 q 401 152 341 152 l 1535 152 q 1847 274 1727 152 q 1931 524 1931 367 q 1880 770 1931 658 q 1771 844 1837 844 q 1549 749 1691 844 q 1525 743 1531 743 l 1511 743 q 1440 814 1440 759 l 1440 822 q 1462 1031 1462 953 l 1462 1050 q 1316 1419 1462 1302 q 1061 1492 1208 1492 q 738 1427 890 1492 q 564 1142 564 1340 m 1039 1240 l 1044 1240 q 1264 857 1044 1236 l 1264 854 l 1156 854 l 1156 526 l 949 526 l 949 854 l 819 854 l 819 857 q 1039 1240 1039 1236 m 949 483 l 1156 483 l 1156 347 l 949 347 l 949 483 z "},"L":{"ha":2165,"x_min":0,"x_max":2083,"o":"m 1061 1644 q 1568 1326 1438 1644 q 1614 1077 1614 1202 l 1614 963 q 1758 996 1703 996 l 1788 996 q 2024 830 1930 996 q 2083 537 2083 694 l 2083 505 q 1845 76 2083 222 q 1557 0 1701 0 l 372 0 q 163 87 275 0 q 0 518 0 229 l 0 534 q 214 884 0 789 q 412 917 296 917 q 448 914 414 917 q 412 1131 412 1030 l 412 1156 q 496 1424 412 1307 q 1061 1644 668 1644 m 564 1142 q 616 898 564 1042 q 643 825 643 840 l 643 814 q 572 743 627 743 l 556 743 q 401 765 486 760 q 225 716 306 765 q 152 518 152 651 q 282 190 152 286 q 401 152 341 152 l 1535 152 q 1847 274 1727 152 q 1931 524 1931 367 q 1880 770 1931 658 q 1771 844 1837 844 q 1549 749 1691 844 q 1525 743 1531 743 l 1511 743 q 1440 814 1440 759 l 1440 822 q 1462 1031 1462 953 l 1462 1050 q 1316 1419 1462 1302 q 1061 1492 1208 1492 q 738 1427 890 1492 q 564 1142 564 1340 m 949 1240 l 1156 1240 l 1156 1101 l 949 1101 l 949 1240 m 949 1061 l 1156 1061 l 1156 730 l 1264 730 q 1042 347 1054 362 q 819 730 1029 362 l 949 730 l 949 1061 z "},"M":{"ha":1438,"x_min":0,"x_max":1356,"o":"m 800 1630 q 871 1576 853 1630 l 871 1560 q 814 1495 871 1512 l 738 1495 l 738 1356 q 1017 1270 874 1347 q 1324 898 1235 1141 q 1356 705 1356 793 l 1356 643 q 1218 260 1356 458 q 1039 100 1101 132 q 713 0 869 0 l 651 0 q 220 174 424 0 q 71 369 119 273 q 0 643 0 517 l 0 719 q 122 1072 0 887 q 469 1326 243 1248 q 602 1354 558 1353 l 602 1495 l 537 1495 q 467 1549 484 1495 l 467 1565 q 524 1630 467 1613 l 800 1630 m 138 689 l 138 667 q 312 282 138 453 q 670 138 475 138 l 689 138 q 1069 307 899 138 q 1218 667 1218 472 l 1218 686 q 1028 1090 1218 913 q 689 1218 866 1218 l 667 1218 q 263 1025 442 1218 q 138 689 138 863 m 673 1088 q 738 1031 720 1088 l 738 795 q 871 865 846 865 l 876 865 q 944 795 937 865 q 879 716 944 747 q 678 600 702 600 l 670 600 q 602 670 609 600 l 602 1017 q 656 1088 602 1070 l 673 1088 z "},"N":{"ha":1709,"x_min":0,"x_max":1628,"o":"m 779 1628 l 849 1628 q 1375 1408 1124 1628 q 1535 1196 1494 1285 q 1628 846 1628 1017 l 1628 781 q 1394 239 1628 493 q 1118 54 1261 112 q 854 0 964 0 l 779 0 q 301 176 538 0 q 141 353 170 296 q 0 779 0 563 l 0 857 q 155 1297 0 1071 q 347 1484 245 1415 q 779 1628 562 1628 m 138 833 l 138 798 q 212 505 138 662 q 377 648 329 624 q 773 781 585 781 l 773 784 q 803 1240 797 1240 q 819 1245 812 1245 q 836 1210 836 1245 q 860 781 844 1084 q 1185 697 1011 781 q 1370 567 1269 654 l 1419 515 l 1421 515 q 1489 803 1489 667 l 1489 822 q 1256 1326 1489 1105 q 979 1468 1120 1436 q 836 1489 901 1489 l 798 1489 q 334 1291 551 1489 q 298 1251 334 1286 q 152 947 189 1125 q 138 833 138 886 m 269 401 q 420 252 327 321 q 808 125 607 125 l 833 125 q 1345 363 1119 125 q 1375 401 1345 367 q 1199 567 1269 524 q 895 675 1055 657 q 865 678 889 675 q 873 540 868 657 q 898 483 898 521 l 898 475 q 838 401 898 425 q 817 399 828 399 l 811 399 q 730 467 751 399 l 730 483 q 757 545 730 519 q 765 678 762 612 q 494 597 598 656 q 269 401 375 535 z "},"O":{"ha":1600,"x_min":0,"x_max":1519,"o":"m 749 1630 l 770 1630 q 1096 1386 962 1630 q 1161 1099 1161 1234 l 1161 1044 q 1080 757 1161 935 l 1039 675 l 1042 675 q 1302 602 1105 673 q 1519 358 1519 496 l 1519 334 q 1348 119 1519 222 q 754 0 1115 0 q 81 182 311 0 q 0 339 0 261 l 0 361 q 244 613 0 505 q 480 675 427 675 q 420 800 480 681 q 358 1072 358 956 q 458 1443 358 1277 q 749 1630 585 1630 m 496 1072 q 757 507 496 878 l 760 507 q 933 779 846 617 q 1023 1063 1023 960 l 1023 1074 q 906 1419 1023 1272 q 762 1492 829 1492 q 567 1348 652 1492 q 496 1072 496 1212 m 757 1313 q 871 1226 838 1313 q 876 1191 876 1214 q 789 1074 876 1107 q 751 1069 762 1069 q 640 1153 677 1069 q 635 1185 635 1172 l 635 1196 q 722 1308 635 1274 q 757 1313 750 1313 m 138 350 q 312 212 138 283 q 762 138 511 138 q 1299 255 1082 138 q 1381 347 1372 302 q 1218 483 1381 412 q 958 543 1053 543 q 776 323 814 323 l 760 323 q 673 388 711 323 q 559 545 637 432 q 233 453 353 517 q 138 350 138 391 z "},"P":{"ha":1709,"x_min":0,"x_max":1628,"o":"m 779 1628 l 849 1628 q 1375 1408 1124 1628 q 1541 1188 1488 1293 q 1628 846 1628 1008 l 1628 773 q 1451 301 1628 541 q 1286 146 1337 178 q 854 0 1063 0 l 779 0 q 301 176 538 0 q 141 353 170 296 q 0 779 0 563 l 0 857 q 155 1297 0 1071 q 347 1484 245 1415 q 779 1628 562 1628 m 138 833 l 138 798 q 336 334 138 551 q 803 138 551 138 l 822 138 q 1289 334 1082 138 q 1419 515 1395 448 q 1489 803 1489 657 l 1489 822 q 1256 1326 1489 1105 q 979 1468 1120 1436 q 836 1489 901 1489 l 798 1489 q 334 1291 551 1489 q 298 1251 334 1286 q 152 947 189 1125 q 138 833 138 886 m 1115 1188 l 1128 1188 q 1175 1147 1175 1179 l 1175 1123 q 1093 990 1175 1109 l 730 448 q 705 437 715 437 l 678 437 q 637 477 644 444 l 637 651 l 464 651 q 423 692 430 658 l 423 716 q 494 784 427 747 q 1099 1185 1069 1170 l 1115 1188 m 917 933 l 656 757 l 697 757 q 743 716 743 747 l 743 670 l 746 670 q 920 933 751 681 l 917 933 z "},"Q":{"ha":1609,"x_min":0,"x_max":1527,"o":"m 741 1527 q 789 1440 761 1527 q 825 1378 817 1378 l 895 1364 q 1001 1487 908 1384 q 1134 1427 1080 1459 l 1134 1424 q 1118 1264 1118 1280 q 1177 1218 1157 1239 q 1321 1264 1310 1264 l 1324 1264 q 1416 1158 1350 1264 q 1321 1023 1416 1143 l 1354 947 q 1514 906 1501 919 q 1527 789 1527 798 q 1462 743 1527 762 q 1375 705 1433 728 q 1364 629 1375 684 q 1484 518 1474 535 q 1424 391 1438 391 l 1424 388 q 1264 407 1392 393 q 1221 350 1238 367 l 1221 345 l 1267 201 q 1185 127 1267 176 q 1158 109 1185 123 q 1023 203 1149 109 q 947 174 994 190 q 906 14 922 14 q 803 3 847 3 l 795 3 q 792 0 792 3 q 760 27 772 0 q 705 152 746 64 l 629 163 l 526 46 l 518 46 q 391 103 497 46 l 391 106 q 410 263 407 258 q 347 312 382 279 l 203 263 q 111 372 174 263 l 111 374 q 203 507 111 392 q 174 583 193 526 q 14 624 14 612 q 0 746 0 682 q 76 792 0 769 l 149 827 q 160 901 149 836 l 41 1006 q 95 1139 41 1031 l 98 1139 l 260 1123 l 260 1126 q 307 1183 289 1165 q 258 1335 258 1318 q 342 1405 258 1350 q 369 1419 358 1419 q 502 1326 381 1419 q 578 1359 576 1354 q 613 1514 603 1501 q 741 1527 663 1527 m 578 773 l 578 768 q 627 640 578 697 q 749 581 683 581 l 765 581 q 939 700 879 581 q 947 757 947 728 l 947 762 q 895 892 947 835 q 762 949 846 949 q 586 830 644 949 q 578 773 578 802 z "},"R":{"ha":1714,"x_min":0,"x_max":1633,"o":"m 795 1630 l 844 1630 q 1348 1435 1109 1630 q 1500 1259 1466 1322 q 1628 852 1628 1055 q 1633 830 1633 833 l 1633 800 l 1628 776 q 1449 301 1628 539 q 811 0 1187 0 q 174 309 434 0 q 0 800 0 532 l 0 836 q 347 1489 0 1221 q 795 1630 560 1630 m 613 1240 q 746 1226 669 1232 l 746 1462 q 651 1337 686 1415 q 613 1240 613 1260 m 884 1459 l 884 1226 q 1017 1237 910 1226 q 884 1459 959 1407 m 350 1310 q 469 1270 376 1291 q 472 1272 472 1270 q 543 1435 503 1369 q 372 1329 473 1407 q 350 1310 358 1310 m 1085 1435 q 1158 1267 1120 1377 l 1161 1267 q 1280 1302 1171 1267 l 1280 1305 q 1085 1435 1175 1399 m 252 1191 q 165 1009 205 1125 q 141 884 146 936 l 407 884 q 434 1131 415 1032 q 252 1194 318 1163 l 252 1191 m 1194 1126 q 1221 884 1221 975 l 1487 884 q 1411 1131 1463 1043 q 1375 1191 1399 1156 q 1194 1128 1318 1161 l 1194 1126 m 572 1104 q 545 884 553 1003 l 746 884 l 746 1088 q 572 1104 682 1088 m 884 1088 l 884 884 l 1082 884 q 1055 1101 1074 1012 q 884 1088 939 1088 m 141 746 q 195 543 141 690 q 255 442 232 468 q 434 502 400 502 q 407 746 415 588 l 141 746 m 545 746 q 572 529 553 618 q 746 545 627 540 l 746 746 l 545 746 m 884 746 l 884 545 q 1055 529 998 540 q 1082 746 1082 672 l 884 746 m 1221 746 l 1221 743 q 1194 502 1221 652 q 1375 442 1224 502 q 1470 662 1441 537 q 1487 746 1484 713 l 1221 746 m 610 393 q 727 179 640 279 l 746 165 l 746 407 q 610 393 661 401 m 884 407 l 884 168 q 979 298 950 224 q 1020 393 991 317 q 884 407 964 401 m 347 328 q 537 201 440 243 q 469 366 489 291 q 347 328 423 355 m 1158 366 q 1090 201 1158 340 q 1278 326 1156 222 l 1280 326 l 1280 328 q 1158 366 1211 353 z "},"S":{"ha":1912,"x_min":0,"x_max":1831,"o":"m 486 1549 l 532 1549 q 882 1351 555 1542 l 1831 803 l 1831 749 q 1166 363 1830 745 q 1128 334 1128 345 l 1128 328 l 1112 328 q 838 174 1093 323 q 532 0 543 0 l 486 0 l 486 328 l 0 328 l 0 1164 l 486 1164 l 486 1549 z "},"T":{"ha":1912,"x_min":0,"x_max":1831,"o":"m 1291 1549 l 1345 1549 l 1345 1164 l 1831 1164 l 1831 328 l 1345 328 l 1345 0 l 1297 0 q 977 182 1289 0 l 724 328 l 703 328 q 689 347 703 347 q 0 746 528 444 l 0 800 q 993 1375 13 812 l 1291 1549 z "},"U":{"ha":1630,"x_min":0,"x_max":1549,"o":"m 385 1831 l 1221 1831 l 1221 1345 l 1549 1345 l 1549 1299 q 1343 939 1546 1281 q 1221 719 1221 726 l 1221 703 q 1199 686 1199 703 q 803 0 876 130 l 746 0 l 0 1294 l 0 1345 l 385 1345 l 385 1831 z "},"V":{"ha":1630,"x_min":0,"x_max":1549,"o":"m 746 1831 l 800 1831 q 1166 1199 804 1830 q 1549 534 1549 541 l 1549 486 l 1221 486 l 1221 0 l 385 0 l 385 486 l 0 486 l 0 532 q 198 882 7 555 l 746 1831 z "},"W":{"ha":1687,"x_min":0,"x_max":1606,"o":"m 784 1530 l 822 1530 q 1028 993 1028 1041 q 1036 996 1034 996 q 1603 960 1197 996 l 1606 947 l 1606 925 q 1172 567 1276 630 l 1172 564 q 1308 19 1253 292 l 1308 5 q 1302 0 1308 0 l 1275 0 q 1050 133 1263 1 q 803 296 949 192 q 336 0 595 151 l 301 0 l 301 27 q 423 532 301 76 q 431 567 431 543 q 0 925 306 652 l 0 955 q 90 966 0 963 q 570 996 391 996 q 578 993 575 993 q 784 1530 578 1042 z "},"X":{"ha":1742,"x_min":0,"x_max":1660,"o":"m 410 1522 l 1657 1522 l 1657 486 q 1660 239 1657 397 q 1571 68 1655 159 q 1394 0 1487 0 l 1345 0 q 1109 155 1200 0 q 1085 260 1085 214 l 1085 315 q 1240 551 1085 460 q 1345 575 1297 575 l 1400 575 q 1495 556 1438 575 l 1495 1088 l 570 1088 l 570 382 q 575 309 575 317 l 575 260 q 448 41 575 131 q 309 0 382 0 l 260 0 q 24 155 115 0 q 0 260 0 214 l 0 315 q 155 551 0 460 q 260 575 212 575 l 315 575 q 412 553 361 575 l 412 559 q 410 1522 412 808 z "},"Y":{"ha":1625,"x_min":0,"x_max":1544,"o":"m 933 1544 l 963 1544 q 1302 1421 1133 1544 q 1544 958 1544 1218 l 1544 928 q 1367 524 1544 711 q 960 342 1179 342 l 917 342 q 654 418 791 342 l 651 418 l 231 0 l 228 0 q 0 228 117 107 l 0 231 l 418 651 q 339 941 339 796 q 618 1446 339 1241 q 933 1544 768 1544 m 678 1023 l 678 879 l 1253 879 l 1253 1023 l 678 1023 z "},"Z":{"ha":1625,"x_min":0,"x_max":1544,"o":"m 933 1544 l 963 1544 q 1302 1421 1133 1544 q 1544 958 1544 1218 l 1544 928 q 1367 524 1544 711 q 960 342 1179 342 l 917 342 q 654 418 791 342 l 651 418 l 231 0 l 228 0 q 0 228 117 107 l 0 231 l 418 651 q 339 941 339 796 q 618 1446 339 1241 q 933 1544 768 1544 m 895 1237 l 895 1023 l 678 1023 l 678 879 l 895 879 l 895 665 l 1036 665 l 1036 879 l 1253 879 l 1253 1023 l 1036 1023 l 1036 1237 l 895 1237 z "},"[":{"ha":514,"x_min":0,"x_max":0,"o":""},"\\":{"ha":386,"x_min":0,"x_max":0,"o":""},"]":{"ha":514,"x_min":0,"x_max":0,"o":""},"^":{"ha":688,"x_min":0,"x_max":0,"o":""},"_":{"ha":694,"x_min":0,"x_max":0,"o":""},"`":{"ha":694,"x_min":0,"x_max":0,"o":""},"a":{"ha":2097,"x_min":0,"x_max":2016,"o":"m 0 1549 l 46 1549 q 404 1345 68 1543 q 667 1194 600 1234 l 670 1194 l 670 1549 l 716 1549 q 1066 1351 739 1542 l 2016 803 l 2016 749 q 1383 382 2015 745 q 719 0 726 0 l 670 0 l 670 355 l 667 355 q 49 0 92 22 l 0 0 l 0 1549 z "},"b":{"ha":1465,"x_min":0,"x_max":1383,"o":"m 0 1549 l 46 1549 q 445 1321 64 1546 q 922 1047 448 1321 l 922 1546 l 1383 1546 l 1383 0 l 922 0 l 922 502 l 76 14 q 46 0 56 0 l 0 0 l 0 1549 z "},"c":{"ha":1427,"x_min":0,"x_max":1345,"o":"m 0 1549 l 46 1549 q 396 1351 69 1542 l 1345 803 l 1345 749 q 713 382 1345 745 q 49 0 56 0 l 0 0 l 0 1549 z "},"d":{"ha":1188,"x_min":0,"x_max":1107,"o":"m 646 1549 l 1107 1549 l 1107 3 l 646 3 l 646 1549 m 0 1546 l 461 1546 l 461 0 l 0 0 l 0 1546 z "},"e":{"ha":1628,"x_min":0,"x_max":1546,"o":"m 765 1546 l 787 1546 q 1308 1345 1088 1546 q 1546 779 1546 1118 l 1546 762 q 1332 225 1546 448 q 787 0 1106 0 l 762 0 q 141 312 378 0 q 0 754 0 510 l 0 787 q 328 1419 0 1177 q 765 1546 522 1546 z "},"f":{"ha":1628,"x_min":0,"x_max":1546,"o":"m 0 1546 l 1546 1546 l 1546 0 l 0 0 l 0 1546 z "},"g":{"ha":1704,"x_min":0,"x_max":1622,"o":"m 895 1522 l 952 1522 q 1413 1356 1191 1522 q 1622 941 1622 1164 l 1622 901 q 1489 567 1622 737 q 1337 439 1392 467 q 944 326 1148 326 l 909 326 q 382 540 610 326 q 225 892 225 721 l 225 949 q 415 1340 225 1151 q 895 1522 642 1522 m 437 404 q 540 307 523 404 l 540 298 q 458 201 540 229 l 431 201 q 339 274 367 201 q 336 296 336 285 l 336 315 q 404 399 336 367 q 437 404 423 404 m 266 214 q 347 141 347 199 l 347 119 q 279 49 347 72 l 263 49 q 184 133 195 49 q 247 212 184 187 q 266 214 266 212 m 71 138 q 138 68 130 138 q 68 0 138 12 q 0 71 12 0 q 71 138 0 127 z "},"h":{"ha":1980,"x_min":0,"x_max":1899,"o":"m 279 1600 l 1438 1600 q 1497 1557 1485 1600 q 1506 1299 1503 1448 q 1750 1546 1509 1300 l 1752 1546 q 1899 1397 1806 1496 l 1495 982 q 1443 564 1495 893 q 1310 106 1384 282 q 1251 5 1270 15 q 1218 0 1232 0 l 60 0 q 0 57 0 0 q 54 193 0 72 q 228 1291 228 659 q 220 1549 228 1307 q 258 1598 220 1583 q 279 1600 269 1600 m 334 1492 l 339 1299 q 144 109 339 591 l 1185 109 q 1310 486 1267 296 q 1370 852 1370 784 q 895 369 1337 823 q 814 331 895 352 q 656 277 776 315 q 738 513 730 513 q 1392 1183 1341 1127 q 1394 1286 1392 1206 q 1389 1492 1394 1325 l 334 1492 z "},"i":{"ha":1421,"x_min":0,"x_max":1340,"o":"m 518 1568 l 819 1568 l 819 673 l 518 673 l 518 1568 m 960 1264 l 971 1264 q 1109 1180 1007 1264 q 1242 1023 1223 1070 q 1340 697 1340 861 l 1340 635 q 1191 244 1340 441 q 1017 95 1073 117 q 705 0 854 0 l 635 0 q 247 146 444 0 q 92 326 120 264 q 0 635 0 488 l 0 705 q 149 1099 0 899 q 361 1259 302 1259 l 374 1259 q 445 1188 445 1243 l 445 1177 q 369 1093 445 1131 q 252 977 297 1040 q 152 681 152 835 l 152 662 q 336 271 152 444 q 499 182 465 182 q 665 152 577 152 l 675 152 q 1066 336 901 152 q 1188 665 1188 486 l 1188 675 q 1006 1066 1188 897 q 909 1137 919 1126 q 890 1183 890 1161 l 890 1194 q 960 1264 905 1264 z "},"j":{"ha":1340,"x_min":0,"x_max":1259,"o":"m 629 1495 q 1158 1210 953 1495 q 1259 887 1259 1044 l 1259 849 q 806 155 1259 605 q 629 0 694 52 q 342 266 562 44 q 0 849 0 640 l 0 887 q 187 1316 0 1116 q 629 1495 380 1495 m 429 1017 q 551 833 429 902 q 635 817 601 817 q 819 939 750 817 q 836 1023 836 989 q 713 1207 836 1138 q 629 1223 663 1223 q 445 1101 514 1223 q 429 1017 429 1051 z "},"k":{"ha":1253,"x_min":0,"x_max":1172,"o":"m 0 1492 l 1172 1492 l 1172 1427 l 963 1427 l 963 852 l 1172 640 l 1172 637 q 694 635 835 635 l 694 220 q 575 3 686 195 l 575 0 l 572 0 q 483 209 562 9 q 477 214 477 209 l 477 635 l 0 635 l 0 637 l 214 854 l 214 1427 l 0 1427 l 0 1492 z "},"l":{"ha":2257,"x_min":0,"x_max":2176,"o":"m 293 1530 l 1883 1530 q 2176 1232 2176 1530 l 2176 298 q 1877 0 2176 0 l 298 0 q 0 293 0 0 l 0 1237 q 293 1530 0 1530 m 103 1389 l 103 1383 q 184 1294 103 1348 l 836 779 l 836 773 l 361 176 q 353 149 353 163 l 353 146 q 391 103 353 111 l 399 103 q 494 193 433 103 l 911 713 l 917 713 q 1069 600 1038 617 l 1085 597 l 1093 597 q 1210 678 1122 597 q 1242 703 1215 678 l 1248 703 q 1584 285 1260 693 q 1725 114 1711 125 q 1755 103 1740 103 l 1763 103 q 1801 146 1792 103 q 1704 288 1801 177 l 1324 765 q 1489 903 1324 770 l 2035 1348 q 2048 1383 2048 1369 q 2010 1427 2041 1427 l 1999 1427 q 1869 1335 1971 1427 l 1093 705 l 1090 705 q 1031 746 1080 705 q 182 1416 211 1395 q 152 1427 168 1427 l 144 1427 q 103 1389 103 1421 z "},"m":{"ha":895,"x_min":0,"x_max":814,"o":"m 71 1628 q 138 1554 130 1628 l 138 439 q 214 217 138 326 q 407 136 294 136 q 597 214 518 136 q 678 483 678 318 l 678 1489 l 363 1489 l 363 442 q 410 385 363 385 q 450 445 450 385 l 450 1318 q 513 1381 458 1370 l 529 1381 q 589 1321 589 1363 l 589 412 q 499 266 589 329 q 410 247 459 247 l 396 247 q 239 353 291 247 q 225 429 225 385 l 225 1571 q 271 1625 225 1602 q 285 1628 276 1628 l 757 1628 q 814 1571 814 1614 l 814 420 q 708 127 814 273 q 434 0 589 0 l 380 0 q 68 182 186 0 q 0 431 0 305 l 0 1571 q 57 1628 5 1614 l 71 1628 z "},"n":{"ha":1630,"x_min":0,"x_max":1549,"o":"m 16 1552 l 27 1552 q 627 1394 54 1549 q 713 1356 713 1376 l 713 1335 q 605 1221 713 1330 q 705 1123 610 1221 q 746 1074 746 1088 l 746 1053 q 477 787 484 787 l 450 787 l 309 925 q 212 836 220 836 l 201 836 q 160 911 171 836 q 95 1145 103 1122 q 87 1188 90 1145 q 0 1519 0 1496 l 0 1535 q 16 1552 0 1539 m 1522 1552 l 1533 1552 q 1549 1535 1537 1552 l 1549 1519 q 1459 1169 1541 1473 q 1440 1107 1459 1153 q 1364 841 1375 841 q 1348 836 1356 836 q 1275 892 1322 836 l 1240 925 l 1099 787 l 1077 787 q 982 873 1061 787 q 803 1053 878 975 l 803 1074 q 890 1169 803 1090 l 941 1223 q 836 1335 836 1330 l 836 1351 q 917 1392 836 1380 q 1522 1552 1500 1552 m 488 749 q 570 675 504 749 q 765 477 765 485 l 765 461 q 705 393 765 446 l 624 309 q 713 217 710 228 l 713 193 q 591 149 713 174 q 396 92 422 103 q 38 0 336 81 l 22 0 q 0 16 7 0 l 0 33 q 136 553 0 47 q 182 708 171 690 q 198 713 191 713 l 212 713 q 282 651 227 713 l 328 608 q 477 749 463 749 l 488 749 m 1069 749 q 1137 692 1084 749 q 1218 608 1218 613 l 1221 608 q 1332 713 1327 713 l 1351 713 q 1392 629 1378 713 q 1549 33 1544 74 l 1549 16 q 1527 0 1542 0 l 1522 0 q 1158 92 1512 0 q 1107 109 1152 92 q 841 182 854 174 q 836 193 841 186 l 836 212 q 906 290 836 227 l 925 312 q 784 458 784 447 l 784 467 q 819 515 784 489 q 1055 749 1048 749 l 1069 749 z "},"o":{"ha":1625,"x_min":0,"x_max":1544,"o":"m 244 1527 q 336 1443 260 1527 l 372 1411 q 469 1500 460 1500 l 480 1500 q 515 1427 505 1500 q 651 914 651 935 q 627 892 651 897 l 624 892 q 315 971 325 971 q 57 1042 292 982 q 43 1063 43 1053 l 43 1072 q 119 1156 43 1087 l 119 1158 q 0 1278 116 1158 l 0 1299 q 225 1527 1 1308 l 244 1527 m 1294 1527 l 1316 1527 q 1356 1489 1327 1521 q 1544 1299 1544 1305 l 1544 1278 l 1424 1156 q 1500 1072 1500 1087 l 1500 1063 q 1427 1028 1500 1038 l 1242 977 q 1172 960 1239 972 q 920 892 1136 947 l 917 892 q 892 920 895 892 q 1047 1495 998 1329 l 1066 1500 l 1069 1500 q 1161 1419 1088 1500 l 1172 1411 q 1202 1440 1177 1411 q 1256 1492 1206 1440 q 1294 1527 1282 1520 m 627 651 q 651 627 651 648 l 651 624 q 570 301 570 317 q 537 187 563 301 q 499 54 532 174 q 477 43 488 43 l 472 43 q 388 119 456 43 l 385 119 q 260 0 272 0 l 250 0 q 155 87 234 0 q 16 231 16 219 l 16 244 q 100 336 16 260 l 133 372 q 43 469 43 460 l 43 486 q 146 524 43 503 q 627 651 611 651 m 920 651 q 1495 496 1410 524 q 1500 486 1495 492 l 1500 467 q 1411 372 1500 463 q 1527 250 1527 254 l 1527 228 q 1389 87 1527 222 q 1291 0 1308 0 l 1286 0 q 1194 84 1270 0 l 1156 119 q 1072 43 1087 43 l 1066 43 q 1031 106 1040 43 l 971 317 q 892 624 971 323 l 892 627 q 920 651 892 648 z "},"p":{"ha":1343,"x_min":0,"x_max":1261,"o":"m 694 1535 l 705 1535 q 719 1522 709 1535 l 719 19 q 700 0 719 0 l 694 0 q 600 87 679 0 l 277 407 l 19 407 q 0 426 0 407 l 0 1109 q 19 1128 0 1128 l 277 1128 l 684 1533 q 694 1535 688 1535 m 1093 1107 l 1112 1107 q 1234 933 1171 1107 q 1261 760 1261 861 q 1164 450 1261 585 q 1120 429 1142 429 l 1099 429 q 1044 477 1065 429 l 1044 510 q 1077 578 1044 524 q 1123 765 1123 671 q 1036 1012 1123 886 l 1034 1025 l 1034 1047 q 1093 1107 1051 1107 m 963 987 l 985 987 q 1074 822 1050 987 q 1077 787 1077 822 l 1077 749 q 1031 572 1077 659 q 982 545 1004 545 l 966 545 q 906 605 906 560 l 906 624 q 939 746 939 727 l 939 773 q 906 906 939 821 l 906 930 q 963 987 920 987 m 811 903 l 844 903 q 895 852 876 903 q 901 803 901 838 l 901 732 q 852 635 901 647 q 838 632 847 632 l 817 632 q 760 692 771 632 q 765 768 760 722 q 760 849 760 810 l 760 852 q 811 903 760 884 z "},"q":{"ha":1405,"x_min":0,"x_max":1324,"o":"m 1088 1459 l 1321 1459 l 1324 1446 l 1324 3 l 1310 0 l 1093 0 q 1088 5 1088 0 l 1088 852 q 1085 1451 1088 1057 q 1088 1459 1088 1457 m 817 1188 l 1050 1188 l 1053 1175 l 1053 3 l 1039 0 l 822 0 q 817 5 817 0 l 817 581 q 814 1180 817 785 q 817 1188 817 1185 m 545 917 l 779 917 l 781 903 l 781 3 l 768 0 l 551 0 q 545 5 545 0 l 545 309 q 543 909 545 514 q 545 917 545 914 m 274 646 l 507 646 l 510 632 l 510 3 l 496 0 l 279 0 q 274 5 274 0 l 274 38 q 271 637 274 243 q 274 646 274 643 m 3 374 l 236 374 l 239 361 l 239 3 l 225 0 l 3 0 l 0 14 l 0 361 l 3 374 z "},"r":{"ha":1237,"x_min":0,"x_max":1156,"o":"m 130 1492 l 182 1492 q 201 1470 201 1492 l 201 1267 l 277 1267 l 277 1473 q 296 1492 277 1492 l 339 1492 q 358 1473 358 1492 l 358 1267 l 475 1267 l 475 1107 q 336 890 475 971 q 279 871 319 882 l 279 19 q 269 0 279 5 l 214 0 q 203 19 203 5 l 203 871 q 68 941 144 871 q 0 1096 0 1020 l 0 1267 l 119 1267 l 119 1473 q 130 1492 119 1488 m 681 1492 l 998 1492 l 998 1424 l 1156 1424 l 1156 0 l 524 0 l 524 1424 l 681 1424 l 681 1492 m 608 1345 l 608 84 l 1080 84 l 1080 1345 l 608 1345 m 651 1302 l 1034 1302 l 1034 127 l 651 127 l 651 1302 z "},"s":{"ha":1709,"x_min":0,"x_max":1628,"o":"m 795 1628 l 844 1628 q 1348 1432 1109 1628 q 1500 1256 1466 1320 q 1628 849 1628 1053 l 1628 779 q 1451 301 1628 537 q 1275 138 1339 179 q 1210 98 1215 98 q 849 0 1018 0 l 779 0 q 401 106 602 0 q 68 480 170 253 q 0 798 0 631 l 0 833 q 347 1487 0 1219 q 795 1628 560 1628 m 513 1419 q 594 1242 522 1333 q 746 1156 673 1170 l 746 1487 q 513 1419 650 1480 m 884 1487 l 884 1156 q 1042 1251 986 1183 q 1115 1413 1108 1331 l 1118 1419 q 884 1487 972 1480 m 141 882 l 746 882 l 746 1012 q 545 1096 654 1022 q 431 1229 441 1194 q 388 1335 388 1307 l 385 1335 q 263 1204 295 1259 q 176 1039 207 1122 q 141 882 141 922 m 1242 1335 q 1109 1118 1220 1225 q 903 1015 1015 1037 l 884 1012 l 884 882 l 1487 882 q 1427 1099 1487 948 q 1302 1280 1379 1197 q 1242 1335 1269 1316 m 141 743 q 212 507 149 646 q 366 307 250 422 l 391 288 l 393 288 q 513 483 407 365 q 559 521 517 483 q 746 597 661 585 l 746 743 l 141 743 m 884 743 l 884 597 q 1088 513 978 587 q 1232 323 1196 418 q 1240 293 1240 298 l 1242 293 q 1367 426 1329 366 q 1451 591 1426 515 q 1487 743 1471 640 l 884 743 m 884 453 l 884 141 q 1061 187 1000 157 q 1115 212 1076 188 q 1042 363 1108 278 q 884 453 952 445 m 518 206 q 746 141 671 142 l 746 450 l 743 450 q 605 374 675 437 q 518 206 528 287 z "},"t":{"ha":1440,"x_min":0,"x_max":1359,"o":"m 659 1682 l 692 1682 q 1207 1386 1006 1682 q 1289 1101 1289 1234 l 1289 920 q 1354 849 1322 909 q 1359 811 1359 820 l 1359 518 q 1291 410 1359 453 q 1234 393 1263 393 q 1188 258 1234 360 q 998 90 1116 142 q 966 33 998 66 q 890 0 934 0 l 868 0 q 757 95 788 0 l 757 138 q 822 233 757 193 q 868 244 838 244 l 895 244 q 966 212 931 244 q 968 206 968 212 q 1093 328 1048 237 q 1118 404 1118 378 q 1088 453 1088 422 l 1088 876 q 1150 936 1088 925 l 1150 977 q 1153 1080 1150 1023 q 1080 1321 1153 1185 q 814 1525 988 1466 q 689 1544 739 1544 l 673 1544 q 290 1343 448 1544 q 206 1077 206 1211 l 206 939 l 212 939 q 271 879 271 926 l 271 456 q 212 396 258 396 l 125 396 q 16 464 60 396 q 0 521 0 492 l 0 814 q 68 925 0 876 l 68 1088 q 331 1579 68 1379 q 659 1682 489 1682 z "},"u":{"ha":1061,"x_min":0,"x_max":979,"o":"m 746 1495 l 746 1492 l 532 841 l 979 841 l 979 838 q 233 0 240 4 l 233 3 q 448 654 448 650 l 0 654 l 0 656 q 746 1495 739 1491 z "},"v":{"ha":1302,"x_min":0,"x_max":1221,"o":"m 513 1557 l 700 1557 q 982 1459 831 1557 q 1153 1118 1153 1319 l 1153 949 l 1221 949 l 1221 0 l 0 0 l 0 949 l 68 949 l 68 1088 q 190 1411 68 1255 q 513 1557 323 1557 m 206 1072 l 206 949 l 1017 949 l 1017 1047 q 817 1389 1017 1318 q 673 1419 732 1419 l 526 1419 q 271 1286 368 1419 q 206 1072 206 1167 m 453 610 q 526 494 453 538 q 453 203 456 210 l 724 203 q 651 494 722 210 q 724 613 724 537 q 618 743 724 704 q 589 746 612 743 q 456 635 490 746 l 453 610 z "},"w":{"ha":1704,"x_min":0,"x_max":1622,"o":"m 792 1622 l 825 1622 q 876 1571 857 1622 l 876 1487 l 879 1487 q 1172 1386 997 1487 q 1454 1020 1376 1252 q 1484 879 1470 977 l 1565 879 q 1622 822 1622 865 l 1622 800 q 1565 743 1609 743 l 1487 743 q 1476 684 1480 743 q 1416 507 1446 562 q 1275 320 1381 425 q 1055 176 1171 220 q 876 136 939 136 l 876 52 q 825 0 876 19 l 792 0 q 741 52 760 0 l 741 133 q 524 190 612 149 q 315 339 429 229 q 155 605 204 456 q 130 743 130 700 l 57 743 q 0 800 0 757 l 0 822 q 57 879 14 879 l 130 879 l 130 882 q 206 1137 130 982 q 342 1310 236 1200 q 610 1465 467 1421 q 741 1489 690 1484 l 741 1571 q 792 1622 741 1603 m 269 879 l 347 879 q 404 822 404 865 l 404 800 q 347 743 391 743 l 271 743 q 334 548 271 676 q 486 377 380 458 q 741 274 574 304 l 741 353 q 792 404 741 385 l 825 404 q 876 353 857 404 l 876 277 l 879 277 q 1131 380 1008 293 q 1326 667 1269 483 l 1343 743 l 1275 743 q 1218 800 1218 757 l 1218 822 q 1275 879 1232 879 l 1343 879 q 1280 1069 1326 979 q 1161 1218 1244 1139 q 882 1345 1013 1334 l 876 1345 l 876 1270 q 825 1218 876 1237 l 792 1218 q 741 1270 760 1218 l 741 1348 q 507 1261 598 1324 q 282 947 353 1166 l 269 879 z "},"x":{"ha":1842,"x_min":0,"x_max":1761,"o":"m 279 814 l 1614 814 q 1744 727 1690 814 q 1761 662 1761 696 l 1761 146 q 1674 16 1761 71 q 1614 0 1641 0 l 269 0 q 174 52 222 5 q 133 146 133 100 l 133 269 l 87 269 q 3 336 37 269 q 0 358 0 347 l 0 456 q 68 537 0 505 q 90 540 79 540 l 133 540 l 133 662 q 231 803 133 751 q 279 814 260 814 m 271 646 l 271 176 q 301 138 271 138 q 326 136 311 136 l 1321 136 q 1603 673 1321 141 l 1598 675 l 309 675 q 271 646 271 675 z "},"y":{"ha":1709,"x_min":0,"x_max":1628,"o":"m 795 1628 l 844 1628 q 1348 1432 1109 1628 q 1500 1256 1466 1320 q 1628 849 1628 1053 l 1628 779 q 1470 326 1628 553 q 1359 206 1424 267 q 974 14 1179 50 q 849 0 913 0 l 779 0 q 334 152 556 0 q 0 798 0 416 l 0 833 q 347 1487 0 1219 q 795 1628 560 1628 m 138 825 l 138 803 q 260 426 138 611 q 480 228 365 286 q 814 136 648 136 q 1161 233 980 136 q 1451 586 1356 351 q 1492 814 1492 725 q 1397 1156 1492 979 q 1275 1308 1354 1230 q 825 1489 1067 1489 l 803 1489 q 339 1297 553 1489 q 138 825 138 1080 m 781 1359 l 814 1359 q 865 1308 846 1359 q 868 1289 868 1304 l 868 974 q 947 1047 873 974 q 1009 1088 985 1088 l 1028 1088 q 1088 1034 1068 1088 l 1088 1009 q 993 898 1088 977 q 819 738 834 738 l 781 738 q 730 789 749 738 l 730 1308 q 781 1359 730 1340 z "},"z":{"ha":1134,"x_min":0,"x_max":1053,"o":"m 212 1630 l 841 1630 q 1039 1508 989 1630 q 1053 1430 1053 1475 l 1053 198 q 911 5 1053 59 q 852 0 871 0 l 195 0 q 14 122 68 0 q 0 214 0 152 l 0 1424 q 125 1619 0 1566 q 212 1630 166 1630 m 138 1416 l 138 342 l 914 342 l 914 1419 q 841 1492 914 1492 l 222 1492 q 149 1462 149 1488 q 138 1416 141 1462 m 461 195 q 529 127 474 127 q 597 195 597 140 q 529 263 584 263 q 461 195 461 250 z "},"{":{"ha":688,"x_min":0,"x_max":0,"o":""},"|":{"ha":688,"x_min":0,"x_max":0,"o":""},"}":{"ha":688,"x_min":0,"x_max":0,"o":""},"~":{"ha":688,"x_min":0,"x_max":0,"o":""},"¡":{"ha":456,"x_min":0,"x_max":0,"o":""},"¢":{"ha":772,"x_min":0,"x_max":0,"o":""},"£":{"ha":688,"x_min":0,"x_max":0,"o":""},"¤":{"ha":688,"x_min":0,"x_max":0,"o":""},"¥":{"ha":856,"x_min":0,"x_max":0,"o":""},"¦":{"ha":688,"x_min":0,"x_max":0,"o":""},"§":{"ha":688,"x_min":0,"x_max":0,"o":""},"¨":{"ha":694,"x_min":0,"x_max":0,"o":""},"©":{"ha":1135,"x_min":0,"x_max":0,"o":""},"ª":{"ha":439,"x_min":0,"x_max":0,"o":""},"«":{"ha":640,"x_min":0,"x_max":0,"o":""},"¬":{"ha":688,"x_min":0,"x_max":0,"o":""},"®":{"ha":1135,"x_min":0,"x_max":0,"o":""},"¯":{"ha":454,"x_min":0,"x_max":0,"o":""},"°":{"ha":457,"x_min":0,"x_max":0,"o":""},"±":{"ha":688,"x_min":0,"x_max":0,"o":""},"²":{"ha":688,"x_min":0,"x_max":0,"o":""},"³":{"ha":688,"x_min":0,"x_max":0,"o":""},"´":{"ha":694,"x_min":0,"x_max":0,"o":""},"µ":{"ha":800,"x_min":0,"x_max":0,"o":""},"¶":{"ha":694,"x_min":0,"x_max":0,"o":""},"·":{"ha":345,"x_min":0,"x_max":0,"o":""},"¸":{"ha":694,"x_min":0,"x_max":0,"o":""},"¹":{"ha":688,"x_min":0,"x_max":0,"o":""},"º":{"ha":487,"x_min":0,"x_max":0,"o":""},"»":{"ha":640,"x_min":0,"x_max":0,"o":""},"¼":{"ha":1158,"x_min":0,"x_max":0,"o":""},"½":{"ha":1332,"x_min":0,"x_max":0,"o":""},"¾":{"ha":1158,"x_min":0,"x_max":0,"o":""},"¿":{"ha":507,"x_min":0,"x_max":0,"o":""},"À":{"ha":1044,"x_min":0,"x_max":0,"o":""},"Á":{"ha":1044,"x_min":0,"x_max":0,"o":""},"Â":{"ha":1044,"x_min":0,"x_max":0,"o":""},"Ã":{"ha":1044,"x_min":0,"x_max":0,"o":""},"Ä":{"ha":1044,"x_min":0,"x_max":0,"o":""},"Å":{"ha":1044,"x_min":0,"x_max":0,"o":""},"Æ":{"ha":1436,"x_min":0,"x_max":0,"o":""},"Ç":{"ha":949,"x_min":0,"x_max":0,"o":""},"È":{"ha":781,"x_min":0,"x_max":0,"o":""},"É":{"ha":781,"x_min":0,"x_max":0,"o":""},"Ê":{"ha":781,"x_min":0,"x_max":0,"o":""},"Ë":{"ha":781,"x_min":0,"x_max":0,"o":""},"Ì":{"ha":446,"x_min":0,"x_max":0,"o":""},"Í":{"ha":446,"x_min":0,"x_max":0,"o":""},"Î":{"ha":446,"x_min":0,"x_max":0,"o":""},"Ï":{"ha":446,"x_min":0,"x_max":0,"o":""},"Ð":{"ha":1029,"x_min":0,"x_max":0,"o":""},"Ñ":{"ha":1054,"x_min":0,"x_max":0,"o":""},"Ò":{"ha":1095,"x_min":0,"x_max":0,"o":""},"Ó":{"ha":1095,"x_min":0,"x_max":0,"o":""},"Ô":{"ha":1095,"x_min":0,"x_max":0,"o":""},"Õ":{"ha":1095,"x_min":0,"x_max":0,"o":""},"Ö":{"ha":1095,"x_min":0,"x_max":0,"o":""},"×":{"ha":688,"x_min":0,"x_max":0,"o":""},"Ø":{"ha":1095,"x_min":0,"x_max":0,"o":""},"Ù":{"ha":1018,"x_min":0,"x_max":0,"o":""},"Ú":{"ha":1018,"x_min":0,"x_max":0,"o":""},"Û":{"ha":1018,"x_min":0,"x_max":0,"o":""},"Ü":{"ha":1018,"x_min":0,"x_max":0,"o":""},"Ý":{"ha":836,"x_min":0,"x_max":0,"o":""},"Þ":{"ha":760,"x_min":0,"x_max":0,"o":""},"ß":{"ha":848,"x_min":0,"x_max":0,"o":""},"à":{"ha":625,"x_min":0,"x_max":0,"o":""},"á":{"ha":625,"x_min":0,"x_max":0,"o":""},"â":{"ha":625,"x_min":0,"x_max":0,"o":""},"ã":{"ha":625,"x_min":0,"x_max":0,"o":""},"ä":{"ha":625,"x_min":0,"x_max":0,"o":""},"å":{"ha":625,"x_min":0,"x_max":0,"o":""},"æ":{"ha":986,"x_min":0,"x_max":0,"o":""},"ç":{"ha":614,"x_min":0,"x_max":0,"o":""},"è":{"ha":616,"x_min":0,"x_max":0,"o":""},"é":{"ha":616,"x_min":0,"x_max":0,"o":""},"ê":{"ha":616,"x_min":0,"x_max":0,"o":""},"ë":{"ha":616,"x_min":0,"x_max":0,"o":""},"ì":{"ha":349,"x_min":0,"x_max":0,"o":""},"í":{"ha":349,"x_min":0,"x_max":0,"o":""},"î":{"ha":349,"x_min":0,"x_max":0,"o":""},"ï":{"ha":349,"x_min":0,"x_max":0,"o":""},"ð":{"ha":772,"x_min":0,"x_max":0,"o":""},"ñ":{"ha":751,"x_min":0,"x_max":0,"o":""},"ò":{"ha":685,"x_min":0,"x_max":0,"o":""},"ó":{"ha":685,"x_min":0,"x_max":0,"o":""},"ô":{"ha":685,"x_min":0,"x_max":0,"o":""},"õ":{"ha":685,"x_min":0,"x_max":0,"o":""},"ö":{"ha":685,"x_min":0,"x_max":0,"o":""},"÷":{"ha":688,"x_min":0,"x_max":0,"o":""},"ø":{"ha":685,"x_min":0,"x_max":0,"o":""},"ù":{"ha":718,"x_min":0,"x_max":0,"o":""},"ú":{"ha":718,"x_min":0,"x_max":0,"o":""},"û":{"ha":718,"x_min":0,"x_max":0,"o":""},"ü":{"ha":718,"x_min":0,"x_max":0,"o":""},"ý":{"ha":589,"x_min":0,"x_max":0,"o":""},"þ":{"ha":685,"x_min":0,"x_max":0,"o":""},"ÿ":{"ha":589,"x_min":0,"x_max":0,"o":""},"ı":{"ha":349,"x_min":0,"x_max":0,"o":""},"ˆ":{"ha":694,"x_min":0,"x_max":0,"o":""},"ˇ":{"ha":694,"x_min":0,"x_max":0,"o":""},"ˉ":{"ha":694,"x_min":0,"x_max":0,"o":""},"˘":{"ha":694,"x_min":0,"x_max":0,"o":""},"˙":{"ha":694,"x_min":0,"x_max":0,"o":""},"˚":{"ha":694,"x_min":0,"x_max":0,"o":""},"˛":{"ha":694,"x_min":0,"x_max":0,"o":""},"˜":{"ha":694,"x_min":0,"x_max":0,"o":""},"˝":{"ha":694,"x_min":0,"x_max":0,"o":""},"–":{"ha":751,"x_min":0,"x_max":0,"o":""},"—":{"ha":1389,"x_min":0,"x_max":0,"o":""},"‘":{"ha":378,"x_min":0,"x_max":0,"o":""},"’":{"ha":378,"x_min":0,"x_max":0,"o":""},"‚":{"ha":378,"x_min":0,"x_max":0,"o":""},"“":{"ha":617,"x_min":0,"x_max":0,"o":""},"”":{"ha":617,"x_min":0,"x_max":0,"o":""},"„":{"ha":617,"x_min":0,"x_max":0,"o":""},"†":{"ha":688,"x_min":0,"x_max":0,"o":""},"‡":{"ha":688,"x_min":0,"x_max":0,"o":""},"•":{"ha":694,"x_min":0,"x_max":0,"o":""},"…":{"ha":1389,"x_min":0,"x_max":0,"o":""},"‹":{"ha":428,"x_min":0,"x_max":0,"o":""},"›":{"ha":428,"x_min":0,"x_max":0,"o":""},"⁄":{"ha":232,"x_min":0,"x_max":0,"o":""},"₣":{"ha":688,"x_min":0,"x_max":0,"o":""},"₤":{"ha":688,"x_min":0,"x_max":0,"o":""},"₧":{"ha":1375,"x_min":0,"x_max":0,"o":""},"€":{"ha":688,"x_min":0,"x_max":0,"o":""},"№":{"ha":1540,"x_min":0,"x_max":0,"o":""},"™":{"ha":1015,"x_min":0,"x_max":0,"o":""},"∂":{"ha":688,"x_min":0,"x_max":0,"o":""},"∆":{"ha":733,"x_min":0,"x_max":0,"o":""},"∏":{"ha":1027,"x_min":0,"x_max":0,"o":""},"∑":{"ha":818,"x_min":0,"x_max":0,"o":""},"−":{"ha":688,"x_min":0,"x_max":0,"o":""},"√":{"ha":688,"x_min":0,"x_max":0,"o":""},"∞":{"ha":688,"x_min":0,"x_max":0,"o":""},"∫":{"ha":451,"x_min":0,"x_max":0,"o":""},"≈":{"ha":688,"x_min":0,"x_max":0,"o":""},"≤":{"ha":688,"x_min":0,"x_max":0,"o":""},"≥":{"ha":688,"x_min":0,"x_max":0,"o":""},"":{"ha":728,"x_min":0,"x_max":0,"o":""},"":{"ha":733,"x_min":0,"x_max":0,"o":""}}}
